<svg width="128" height="128" viewBox="0 0 128 128" fill="none" xmlns="http://www.w3.org/2000/svg">
<path d="M65.7093 77.268L87.5846 59.4646C90.1393 57.3855 88.6691 53.25 85.3754 53.25H41.6246C38.3309 53.25 36.8607 57.3855 39.4154 59.4646L61.2907 77.268C62.5774 78.3152 64.4226 78.3152 65.7093 77.268Z" stroke="#FFC0CB" stroke-opacity="0.5" stroke-width="3"/>
<path d="M65.7093 43.268L87.5846 25.4646C90.1393 23.3855 88.6691 19.25 85.3754 19.25H41.6246C38.3309 19.25 36.8607 23.3855 39.4154 25.4646L61.2907 43.268C62.5774 44.3152 64.4226 44.3152 65.7093 43.268Z" stroke="#FFC0CB" stroke-opacity="0.5" stroke-width="3"/>
<path d="M65.7093 116.268L87.5846 98.4646C90.1393 96.3855 88.6691 92.25 85.3754 92.25H41.6246C38.3309 92.25 36.8607 96.3855 39.4154 98.4646L61.2907 116.268C62.5774 117.315 64.4226 117.315 65.7093 116.268Z" stroke="#FFC0CB" stroke-opacity="0.5" stroke-width="3"/>
</svg>
